# xmcd
#
# Track frame offsets:
#	150
#	14262
#	24662
#	34701
#	47405
#	57104
#	69345
#	82360
#	90766
#	104198
#	112788
#	131119
#	143555
#	154269
#	162964
#	173375
#	182194
#	194689
#	212311
#	222551
#	235429
#	247937
#	259780
#
# Disc length: 3575 seconds
#
# Revision: 1
# Processed by: cddbd v1.5.2PL0 Copyright (c) Steve Scherf et al.
# Submitted via: audiograbber 1.83.01
#
DISCID=3b0df517
DTITLE=Johnny Cash - Singles Collection 1955 - 1962 - CD4
DYEAR=1900
DGENRE=Country
TTITLE0=Going To Memphis
TTITLE1=Loading Coal
TTITLE2=Girl In Saskatoon
TTITLE3=Locomotive Man
TTITLE4=Blues For Two
TTITLE5=Jeri And Nina's Melody
TTITLE6=Forty Shades Of Green
TTITLE7=The Rebel - Johnny Yuma
TTITLE8=Tennessee Flat-Top Box
TTITLE9=Tall Man
TTITLE10=The Big Battle
TTITLE11=When I've Learned Enough To Die
TTITLE12=In The Jailhouse Now
TTITLE13=A Little At A Time
TTITLE14=Bonanza
TTITLE15=Pick a bale O' cotton
TTITLE16=(There'll Be) Peace In the Valley
TTITLE17=Were You There (When They Crucified My Lord)
TTITLE18=Busted
TTITLE19=Send a Picture of Mother
TTITLE20=Remember The Alamo
TTITLE21=The Ballad Of Boot Hill
TTITLE22=Lorena
EXTD=
EXTT0=
EXTT1=
EXTT2=
EXTT3=
EXTT4=
EXTT5=
EXTT6=
EXTT7=
EXTT8=
EXTT9=
EXTT10=
EXTT11=
EXTT12=
EXTT13=
EXTT14=
EXTT15=
EXTT16=
EXTT17=
EXTT18=
EXTT19=
EXTT20=
EXTT21=
EXTT22=
PLAYORDER=
